# xmcd
# 
# Track frame offsets:
#     150
#     16245
#     30020
#     45157
#     62942
#     81240
#     94842
#     110237
#     125010
#     139995
#     153547
#     177142
# 
# Disc length: 2555
# 
# Revision: 11
# Processed by: cddbd v1.5.2PL0 Copyright (c) Steve Scherf et al.
# Submitted via: fre:ac v1.1beta1pre3
# 
DISCID=9909f90c
DTITLE=Tim McGraw - All I Want
DYEAR=1995
DGENRE=Country
TTITLE0=All I Want Is A Life
TTITLE1=She Never Lets It Go To Her Heart
TTITLE2=Can't Be Really Gone
TTITLE3=Maybe We Should Just Sleep On It
TTITLE4=I Didn't Ask And She Didn't Say
TTITLE5=Renegade
TTITLE6=I Like It, I Love It
TTITLE7=The Great Divide
TTITLE8=You Got The Wrong Man
TTITLE9=Don't Mention Memphis
TTITLE10=When She Wakes Up ( And Finds Me Gone )
TTITLE11=That's Just Me
EXTD=YEAR: 1995
EXTT0=
EXTT1=
EXTT2=
EXTT3=
EXTT4=
EXTT5=
EXTT6=
EXTT7=
EXTT8=
EXTT9=
EXTT10=
EXTT11=
PLAYORDER=
